<?xml version="1.0" encoding="utf-8" ?><svg xmlns="http://www.w3.org/2000/svg" xmlns:xlink="http://www.w3.org/1999/xlink" width="600" height="600" viewBox="0 0 600 600"><defs><linearGradient id="gradient_0" gradientUnits="userSpaceOnUse" x1="69.248749" y1="344.16022" x2="324.38177" y2="316.72931"><stop offset="0" stop-color="#03245D"/><stop offset="1" stop-color="#08638C"/></linearGradient></defs><path fill="url(#gradient_0)" d="M392.367 201.3C395.803 201.293 399.71 200.805 402.909 200.832C415.932 200.941 436.385 202.719 448.618 207.788C449.965 208.021 452.528 208.843 453.719 209.535L454.24 209.612C483.298 220.419 506.893 242.293 519.866 270.451C520.129 271.016 520.34 271.493 520.57 272.079C517.819 273.885 514.473 275.329 511.492 276.798C506.243 279.404 500.977 281.974 495.694 284.51C488.894 287.892 479.655 292.738 472.802 295.541C471.268 293.044 469.215 288.519 467.642 285.69C463.492 278.229 460.08 275.241 454.343 269.491C450.387 266.341 447.397 263.961 442.946 261.409C426.743 252.119 408.567 250.105 390.305 252.189C371.369 254.159 354 263.597 342.044 278.412C317.008 309.879 322.171 360.754 354.713 385.121C363.407 391.631 375.063 396.889 385.901 398.317C386.075 398.364 386.249 398.41 386.423 398.456C403.855 401.464 422.77 399.891 438.873 392.298C443.109 390.3 447.136 387.339 450.938 384.853C457.915 379.172 464.719 371.949 469.223 364.095C470.797 361.349 473.234 355.58 474.87 353.637C477.176 353.079 493.474 361.076 496.866 362.686C501.394 364.835 508.49 367.716 512.724 370.181C515.933 371.416 519.397 373.216 522.441 374.839C520.479 379.659 518.793 383.025 516.277 387.586C502.863 411.845 481.406 430.665 455.604 440.801C431.919 450.725 405.156 452.196 379.954 448.655C361.394 445.166 345.175 440.135 329.138 429.635C324.718 426.741 320.788 422.944 316.916 420.304C316.905 429.691 316.491 440.965 316.987 450.085C305.831 449.794 294.558 450.159 283.392 450.036C281.625 450.016 279.364 449.942 277.628 450.069L267.572 449.929C266.327 450.007 265.852 450.132 264.703 449.748C264.238 448.684 264.448 429.618 264.412 426.793C262.353 428.478 259.383 430.293 257.085 431.775C240.016 442.71 220.404 449.034 200.162 450.13C166.426 452.42 133.199 440.957 108.053 418.351C87.8176 400.389 73.9534 374.154 69.3887 347.602C69.0036 345.363 68.6664 343.028 68.532 340.761C67.3937 334.921 67.4599 318.796 68.2227 312.839C68.5414 303.504 72.9069 286.833 76.3935 278.153C88.3813 247.895 112.003 223.707 141.969 211.006C169.648 199.134 203.469 197.622 231.966 207.288C235.065 208.339 238.076 209.471 241.113 210.686C250.264 214.794 256.197 218.063 264.515 223.862C264.389 218.326 264.304 211.986 264.408 206.455C269.661 206.142 275.263 206.355 280.562 206.325C292.536 206.257 304.747 206.639 316.704 206.305C316.725 208.512 316.894 213.192 316.757 215.225C316.965 217.595 316.666 230.483 317.306 231.41L317.736 231.439C319.34 229.317 324.434 226.026 326.817 224.306C346.38 210.187 368.601 203.681 392.367 201.3ZM247.155 277.228C223.135 249.756 182.601 244.055 151.936 263.837C121.27 283.619 109.752 322.898 124.877 356.108C140.002 389.318 177.195 406.411 212.248 396.262C247.3 386.113 269.607 351.792 264.649 315.638C262.696 301.401 256.614 288.047 247.155 277.228Z"/><defs><linearGradient id="gradient_1" gradientUnits="userSpaceOnUse" x1="301.75659" y1="324.483" x2="457.87454" y2="327.28033"><stop offset="0" stop-color="#0C5E86"/><stop offset="1" stop-color="#35BACB"/></linearGradient></defs><path fill="url(#gradient_1)" d="M392.367 201.3C395.803 201.293 399.71 200.805 402.909 200.832C415.932 200.941 436.385 202.719 448.618 207.788C449.965 208.021 452.528 208.843 453.719 209.535L454.24 209.612C483.298 220.419 506.893 242.293 519.866 270.451C520.129 271.016 520.34 271.493 520.57 272.079C517.819 273.885 514.473 275.329 511.492 276.798C506.243 279.404 500.977 281.974 495.694 284.51C488.894 287.892 479.655 292.738 472.802 295.541C471.268 293.044 469.215 288.519 467.642 285.69C463.492 278.229 460.08 275.241 454.343 269.491C450.387 266.341 447.397 263.961 442.946 261.409C426.743 252.119 408.567 250.105 390.305 252.189C371.369 254.159 354 263.597 342.044 278.412C317.008 309.879 322.171 360.754 354.713 385.121C363.407 391.631 375.063 396.889 385.901 398.317C386.075 398.364 386.249 398.41 386.423 398.456C403.855 401.464 422.77 399.891 438.873 392.298C443.109 390.3 447.136 387.339 450.938 384.853C457.915 379.172 464.719 371.949 469.223 364.095C470.797 361.349 473.234 355.58 474.87 353.637C477.176 353.079 493.474 361.076 496.866 362.686C501.394 364.835 508.49 367.716 512.724 370.181C515.933 371.416 519.397 373.216 522.441 374.839C520.479 379.659 518.793 383.025 516.277 387.586C502.863 411.845 481.406 430.665 455.604 440.801C431.919 450.725 405.156 452.196 379.954 448.655C361.394 445.166 345.175 440.135 329.138 429.635C324.718 426.741 320.788 422.944 316.916 420.304C316.905 429.691 316.491 440.965 316.987 450.085C305.831 449.794 294.558 450.159 283.392 450.036C281.625 450.016 279.364 449.942 277.628 450.069L267.572 449.929C269.276 448.549 297.994 450.59 302.946 449.551C302.789 449.524 302.632 449.497 302.475 449.471C302.122 449.562 301.951 449.015 301.806 448.605C301.21 446.92 299.502 441.806 299.612 440.251C299.89 436.31 301.239 431.817 302.094 427.943C302.447 426.341 302.585 424.782 302.936 423.201C303.162 422.18 304.33 420.198 304.318 419.305C304.266 415.619 304.076 411.965 304.347 408.272L308.815 353.401C309.276 347.059 309.155 340.347 309.569 334.447C309.992 328.418 313.267 318.74 313.538 312.208C313.622 310.177 313.002 309.182 312.937 307.588C312.811 305.619 313.041 303.53 312.824 301.568C311.961 293.792 311.065 287.297 313.2 279.634C317.238 265.141 314.662 249.278 315.613 234.393C315.706 232.952 317.443 232.85 317.736 231.439C319.34 229.317 324.434 226.026 326.817 224.306C346.38 210.187 368.601 203.681 392.367 201.3Z"/><defs><linearGradient id="gradient_2" gradientUnits="userSpaceOnUse" x1="448.88879" y1="395.70459" x2="517.91614" y2="399.78586"><stop offset="0" stop-color="#31B4C5"/><stop offset="1" stop-color="#36D3DC"/></linearGradient></defs><path fill="url(#gradient_2)" d="M450.938 384.853C457.915 379.172 464.719 371.949 469.223 364.095C470.797 361.349 473.234 355.58 474.87 353.637C477.176 353.079 493.474 361.076 496.866 362.686C501.394 364.835 508.49 367.716 512.724 370.181C515.933 371.416 519.397 373.216 522.441 374.839C520.479 379.659 518.793 383.025 516.277 387.586C502.863 411.845 481.406 430.665 455.604 440.801L455.932 440.098C455.26 439.367 452.439 439.186 452.042 438.458C450.362 435.378 448.566 430.591 447.635 427.17C447.386 426.256 447.583 424.672 447.549 423.867C447.344 419.055 449.39 413.233 448.543 408.615C448.511 408.443 448.234 407.711 448.265 407.536C448.847 404.286 450.195 401.322 450.596 397.896C450.986 394.567 450.89 391.114 451.052 387.815C452.127 386.348 453.013 385.141 453.708 384.193C453.451 384.154 451.453 384.739 450.938 384.853Z"/><path fill="#44C0CE" d="M512.724 370.181C515.933 371.416 519.397 373.216 522.441 374.839C520.479 379.659 518.793 383.025 516.277 387.586L516.043 386.305C515.637 386.505 515.833 386.495 515.46 386.405C516.711 383.956 519.511 379.024 519.702 376.384C519.843 374.442 516.501 374.677 514.058 372.461C516.183 372.746 517.885 374.409 519.494 374.415C519.081 373.172 514.711 371.922 512.8 370.746L512.724 370.181Z"/><defs><linearGradient id="gradient_3" gradientUnits="userSpaceOnUse" x1="448.38272" y1="252.98723" x2="518.05304" y2="248.72467"><stop offset="0" stop-color="#31B2C6"/><stop offset="1" stop-color="#39D4DC"/></linearGradient></defs><path fill="url(#gradient_3)" d="M454.24 209.612C483.298 220.419 506.893 242.293 519.866 270.451C520.129 271.016 520.34 271.493 520.57 272.079C517.819 273.885 514.473 275.329 511.492 276.798C506.243 279.404 500.977 281.974 495.694 284.51C488.894 287.892 479.655 292.738 472.802 295.541C471.268 293.044 469.215 288.519 467.642 285.69C463.492 278.229 460.08 275.241 454.343 269.491L454.753 269.135C454.886 267.181 450.798 263.866 449.95 261.159C448.87 257.711 449.605 260.331 450.43 257.971C450.443 257.933 448.887 253.463 448.947 252.974C449.237 248.895 448.122 245.401 447.83 241.359C447.508 236.904 448.132 232.493 447.926 227.997C447.503 224.436 446.694 221.724 446.934 218.06C447.119 215.225 448.689 215.472 449.05 214.248C449.92 211.297 450.208 210.466 454.24 209.612Z"/><path fill="#44C0CE" d="M448.618 207.788C449.965 208.021 452.528 208.843 453.719 209.535C451.866 209.701 451.92 209.194 450.074 208.732L450.404 209.57L450.209 209.985C449.597 209.987 444.131 208.203 442.66 207.838C445.091 206.996 447.24 209.69 449.022 208.49C448.598 208.186 448.764 208.399 448.618 207.788Z"/><defs><linearGradient id="gradient_4" gradientUnits="userSpaceOnUse" x1="237.76111" y1="270.46658" x2="324.15878" y2="255.60522"><stop offset="0" stop-color="#0F5C86"/><stop offset="1" stop-color="#2488A4"/></linearGradient></defs><path fill="url(#gradient_4)" d="M264.408 206.455C269.661 206.142 275.263 206.355 280.562 206.325C292.536 206.257 304.747 206.639 316.704 206.305C316.725 208.512 316.894 213.192 316.757 215.225C316.398 220.159 316.628 227.006 316.699 232.03C286.732 261.075 275.109 283.597 271.695 325.811C269.664 325.398 268.673 325.253 266.781 324.399C265.502 321.251 265.625 317.326 264.649 315.638C262.696 301.401 256.614 288.047 247.155 277.228L247.484 277.064C248.334 277.419 248.578 277.941 249.141 278.702L249.384 279.034L249.642 278.941C248.895 277.664 248.498 276.123 247.848 274.775C246.698 272.39 245.196 270.442 243.96 268.179C243.003 266.427 242.247 264.219 241.06 262.638C240.081 261.335 238.483 260.438 237.353 259.252C235.138 256.929 232.989 243.187 232.615 239.566C232.201 235.564 231.808 215.898 232.431 212.776C232.557 212.146 232.842 212.054 233.341 211.75C234.219 211.845 234.525 211.985 235.296 211.596C236.532 208.663 238.137 212.055 241.113 210.686C250.264 214.794 256.197 218.063 264.515 223.862C264.389 218.326 264.304 211.986 264.408 206.455Z"/><path fill="#000B34" d="M68.2227 312.839C69.3039 322.725 69.3129 330.845 68.532 340.761C67.3937 334.921 67.4599 318.796 68.2227 312.839Z"/><defs><linearGradient id="gradient_5" gradientUnits="userSpaceOnUse" x1="363.33926" y1="325.64874" x2="439.95059" y2="323.60211"><stop offset="0" stop-color="#003D6C"/><stop offset="1" stop-color="#2B9DB4"/></linearGradient></defs><path fill="url(#gradient_5)" d="M401.934 281.264C404.837 282.373 408.43 284.649 411.177 286.255C415.982 289.057 420.771 291.887 425.543 294.743C429.44 297.07 433.644 299.127 437.384 301.664C438.348 302.317 439.417 303.008 439.877 304.124C440.278 305.097 440.392 306.218 440.449 307.261C440.709 311.975 440.841 344.576 439.968 346.803C439.549 347.874 438.07 348.8 437.148 349.436C430.241 354.206 422.528 358.212 415.243 362.388C412.566 363.922 409.472 366.211 406.645 367.267C405.17 368.366 403.595 368.921 401.869 369.437C399.039 368.576 395.257 366.253 392.736 364.635C389.895 363.531 366.145 349.313 364.397 347.556C362.439 345.589 363.314 338.073 363.308 335.205C363.398 334.408 363.298 328.465 363.271 327.271C363.163 322.444 363.398 317.268 363.238 312.498C363.317 310.076 362.846 304.937 364.742 303.211C367.294 300.887 398.331 282.65 401.934 281.264Z"/><path fill="#1C5C73" d="M392.736 364.635C396.224 364.51 397.251 366.882 400.662 367.704C403.25 368.327 405.327 366.899 406.645 367.267C405.17 368.366 403.595 368.921 401.869 369.437C399.039 368.576 395.257 366.253 392.736 364.635Z"/><path fill="#C3E0E5" d="M401.417 289.127C403.725 289.103 410.785 293.947 413.307 295.396C419.016 298.677 424.858 302.037 430.446 305.515C421.083 310.623 411.864 316.777 402.364 321.933C400.957 322.097 376.724 307.323 373.468 305.468C382.463 300.297 392.32 293.798 401.417 289.127Z"/><path fill="#C3E0E5" d="M370.238 311.735C372.745 312.496 396.097 326.556 398.672 328.67C399.112 338.018 398.75 350.831 398.711 360.37C394.364 357.97 389.697 355.052 385.342 352.524C380.406 349.658 374.762 346.478 370.077 343.348C369.941 336.193 370.176 328.949 370.078 321.783C370.033 318.478 370.043 315.022 370.238 311.735Z"/><path fill="#C3E0E5" d="M433.068 312.014C433.583 312.065 433.348 311.964 433.752 312.356C433.968 322.284 433.844 333.685 433.771 343.636C424.954 348.667 414.379 355.491 405.711 360.019L405.391 359.692C405.24 357.933 405.208 356.145 405.265 354.382C405.546 345.75 404.997 336.942 405.417 328.336C408.456 326.081 413.774 322.994 417.162 321.024C422.129 318.136 427.977 314.535 433.068 312.014Z"/><path fill="#E82931" d="M210.497 148.689C216.342 142.746 224.803 140.173 232.967 141.856C241.131 143.54 247.884 149.249 250.902 157.019C253.019 162.472 253.121 168.501 251.19 174.022C248.417 181.946 241.789 187.905 233.615 189.822C225.441 191.739 216.855 189.348 210.848 183.483C201.119 173.982 200.962 158.384 210.497 148.689Z"/><path fill="#C02F34" d="M210.848 183.483C212.144 183.943 214.397 185.596 215.623 186.312C225.582 192.133 238.869 190.102 246.128 180.945C247.881 178.733 249.264 175.964 251.19 174.022C248.417 181.946 241.789 187.905 233.615 189.822C225.441 191.739 216.855 189.348 210.848 183.483Z"/><path fill="#C02F34" d="M210.497 148.689C216.342 142.746 224.803 140.173 232.967 141.856C241.131 143.54 247.884 149.249 250.902 157.019C249.251 156.352 247.418 152.287 246.131 150.625C239.182 141.65 226.694 139.792 216.782 144.734C214.698 145.773 212.88 147.861 210.497 148.689Z"/><path fill="#FAC715" d="M283.159 142.432C294.66 137.91 308.251 144.045 313.134 155.238C313.557 156.113 313.773 156.478 313.996 157.444C315.475 161.196 315.942 165.888 315.287 169.855C314.399 176.398 310.955 181.796 305.733 185.782C304.226 186.948 302.568 187.905 300.805 188.627C296.294 190.539 290.627 191.442 285.856 190.139C283.234 189.631 280.11 188.329 277.831 186.942C272.301 183.575 268.338 178.147 266.817 171.855C264.04 159.886 270.596 145.349 283.159 142.432Z"/><path fill="#F0C93A" d="M283.159 142.432C294.66 137.91 308.251 144.045 313.134 155.238C310.565 153.713 309.223 151.343 307.073 149.196C298.955 141.09 293.035 142.65 283.159 142.432Z"/><path fill="#F0C93A" d="M312.724 174.136C313.646 172.92 314.053 171.464 315.287 169.855C314.399 176.398 310.955 181.796 305.733 185.782C304.226 186.948 302.568 187.905 300.805 188.627L300.352 188.33L300.573 187.964L300.341 187.3C306.436 184.166 309.875 180.297 312.724 174.136Z"/><path fill="#5AA854" d="M350.8 141.493C364.288 139.832 376.562 149.441 378.186 162.934C379.81 176.427 370.167 188.674 356.669 190.26C343.225 191.84 331.037 182.244 329.419 168.803C327.801 155.363 337.364 143.148 350.8 141.493Z"/></svg>